<svg xmlns="http://www.w3.org/2000/svg" xmlns:xlink="http://www.w3.org/1999/xlink" id="Layer_1" x="0" y="0" version="1.1" viewBox="0 0 100 100" xml:space="preserve" style="enable-background:new 0 0 100 100"><rect width="26.7" height="4.1" x="13.1" y="23.1" transform="matrix(0.7071 -0.7071 0.7071 0.7071 -10.0546 26.0581)"/><rect width="26.7" height="4.1" x="33.9" y="23.1" transform="matrix(0.8471 -0.5315 0.5315 0.8471 -6.1536 28.9461)"/><rect width="26.7" height="4.1" x="56.7" y="23.1" transform="matrix(0.9345 -0.356 0.356 0.9345 -4.3723 26.5752)"/><rect width="26.7" height="4.1" x="13.1" y="47.3" transform="matrix(0.7071 -0.7071 0.7071 0.7071 -27.1546 33.1412)"/><rect width="26.7" height="4.1" x="33.9" y="47.3" transform="matrix(0.8209 -0.5711 0.5711 0.8209 -19.725 35.8084)"/><rect width="26.7" height="4.1" x="56.7" y="47.3" transform="matrix(0.9689 -0.2476 0.2476 0.9689 -10.0378 18.8686)"/><rect width="26.7" height="4.1" x="13.1" y="74" transform="matrix(0.8209 -0.5711 0.5711 0.8209 -38.7071 28.7179)"/><rect width="26.7" height="4.1" x="33.9" y="74" transform="matrix(0.8471 -0.5315 0.5315 0.8471 -33.2051 36.7299)"/><rect width="26.7" height="4.1" x="56.7" y="74" transform="matrix(0.9946 -0.1035 0.1035 0.9946 -7.4995 7.6579)"/></svg>