<svg xmlns="http://www.w3.org/2000/svg" xmlns:xlink="http://www.w3.org/1999/xlink" id="Layer_1" x="0" y="0" version="1.1" viewBox="0 0 100 100" xml:space="preserve" style="enable-background:new 0 0 100 100"><path d="M78.9,82.7c-4.7,0-8.6-3.9-8.6-8.6s3.9-8.6,8.6-8.6s8.6,3.9,8.6,8.6S83.6,82.7,78.9,82.7z M78.9,71.1c-1.7,0-3,1.3-3,3	s1.3,3,3,3s3-1.3,3-3S80.6,71.1,78.9,71.1z"/><path d="M49.1,31c-4.7,0-8.6-3.9-8.6-8.6s3.9-8.6,8.6-8.6c4.7,0,8.6,3.9,8.6,8.6S53.8,31,49.1,31z M49.1,19.4c-1.7,0-3,1.3-3,3	s1.3,3,3,3s3-1.3,3-3S50.8,19.4,49.1,19.4z"/><path d="M19.7,82.7c-4.7,0-8.6-3.9-8.6-8.6s3.9-8.6,8.6-8.6s8.6,3.9,8.6,8.6S24.4,82.7,19.7,82.7z M19.7,71.1c-1.7,0-3,1.3-3,3	s1.3,3,3,3s3-1.3,3-3S21.4,71.1,19.7,71.1z"/><rect width="45" height="5.6" x="26.7" y="71.3"/><rect width="46.6" height="5.6" x="11.4" y="44.5" transform="matrix(0.4995 -0.8663 0.8663 0.4995 -23.5844 53.777)"/><rect width="5.6" height="47.5" x="61.1" y="24.2" transform="matrix(0.8668 -0.4986 0.4986 0.8668 -15.4303 38.2311)"/></svg>