<svg xmlns="http://www.w3.org/2000/svg" xmlns:xlink="http://www.w3.org/1999/xlink" id="Layer_1" x="0" y="0" version="1.1" viewBox="0 0 100 100" xml:space="preserve" style="enable-background:new 0 0 100 100"><path d="M82.1,89.6H34.5c-5.2,0-9.3-3.9-9.3-8.9v-7.3h11.2v5.5h43.9V37.2h-5.6V26.5h7.5c5.2,0,9.3,3.9,9.3,8.9v45.3	C91.4,85.7,87.3,89.6,82.1,89.6z"/><path d="M65.3,73.5H17.9c-5.2,0-9.3-3.9-9.3-8.9V19.3c0-5,4.1-8.9,9.3-8.9h47.5c5.2,0,9.3,3.9,9.3,8.9v45.3	C74.7,69.6,70.6,73.5,65.3,73.5z M19.8,62.8h43.7V21.1H19.8V62.8z"/></svg>